<?xml version="1.0" standalone="no"?>
<!DOCTYPE svg PUBLIC "-//W3C//DTD SVG 20010904//EN"
 "http://www.w3.org/TR/2001/REC-SVG-20010904/DTD/svg10.dtd">
<svg version="1.0" xmlns="http://www.w3.org/2000/svg"
 width="156.000000pt" height="182.000000pt" viewBox="0 0 156.000000 182.000000"
 preserveAspectRatio="xMidYMid meet">
<metadata>
Created by potrace 1.16, written by Peter Selinger 2001-2019
</metadata>
<g transform="translate(0.000000,182.000000) scale(0.100000,-0.100000)"
fill="#000000" stroke="none">
<path d="M0 910 l0 -910 780 0 780 0 0 910 0 910 -780 0 -780 0 0 -910z m1000
704 c343 -114 506 -502 349 -831 -28 -59 -145 -200 -157 -189 -3 3 1 13 9 22
12 15 12 16 -7 10 -17 -5 -24 -1 -34 24 -7 16 -14 30 -16 30 -2 0 -26 -16 -53
-35 -176 -127 -400 -135 -568 -20 -21 14 -46 25 -56 25 -10 0 -15 5 -12 10 11
18 60 11 97 -15 100 -68 254 -93 378 -61 350 90 478 514 236 783 -94 104 -208
155 -351 157 -197 2 -358 -103 -439 -286 -41 -93 -46 -150 -46 -565 l0 -393
100 0 c65 0 113 5 135 14 50 21 43 9 -7 -14 -33 -15 -66 -20 -145 -20 l-103 0
0 418 c0 424 4 469 40 545 21 42 25 55 14 44 -3 -3 -22 10 -40 29 l-35 34 36
55 c146 219 421 312 675 229z m-115 -454 c58 -36 81 -119 51 -179 -21 -39 -60
-62 -109 -64 -40 -2 -42 -1 -51 36 -7 28 -15 37 -31 37 -11 0 -27 6 -34 13
-10 10 -11 9 -6 -5 4 -10 3 -18 -3 -18 -14 0 -22 25 -22 69 0 44 33 99 70 118
37 19 98 16 135 -7z"/>
</g>
</svg>
